<mxfile host="app.diagrams.net" modified="2021-05-06T09:33:08.277Z" agent="5.0 (Macintosh; Intel Mac OS X 10_14_6) AppleWebKit/537.36 (KHTML, like Gecko) Chrome/90.0.4430.85 Safari/537.36" etag="J-96jY_581-8KziiXqad" version="14.6.10" type="github">
  <diagram id="6lL8_g2ajJ6-dy7d6Woh" name="Page-1">
    <mxGraphModel dx="696" dy="470" grid="1" gridSize="10" guides="1" tooltips="1" connect="1" arrows="1" fold="1" page="1" pageScale="1" pageWidth="827" pageHeight="1169" math="0" shadow="0">
      <root>
        <mxCell id="0" />
        <mxCell id="1" parent="0" />
        <mxCell id="LHo_MaGVaMYz85BEvdli-6" style="edgeStyle=orthogonalEdgeStyle;rounded=0;orthogonalLoop=1;jettySize=auto;html=1;exitX=0.5;exitY=1;exitDx=0;exitDy=0;exitPerimeter=0;" edge="1" parent="1" source="LHo_MaGVaMYz85BEvdli-1" target="LHo_MaGVaMYz85BEvdli-5">
          <mxGeometry relative="1" as="geometry" />
        </mxCell>
        <mxCell id="LHo_MaGVaMYz85BEvdli-1" value="注册" style="strokeWidth=2;html=1;shape=mxgraph.flowchart.terminator;whiteSpace=wrap;" vertex="1" parent="1">
          <mxGeometry x="70" y="30" width="120" height="40" as="geometry" />
        </mxCell>
        <mxCell id="LHo_MaGVaMYz85BEvdli-7" style="edgeStyle=orthogonalEdgeStyle;rounded=0;orthogonalLoop=1;jettySize=auto;html=1;exitX=0.5;exitY=1;exitDx=0;exitDy=0;" edge="1" parent="1" source="LHo_MaGVaMYz85BEvdli-5" target="LHo_MaGVaMYz85BEvdli-8">
          <mxGeometry relative="1" as="geometry">
            <mxPoint x="130" y="170" as="targetPoint" />
          </mxGeometry>
        </mxCell>
        <mxCell id="LHo_MaGVaMYz85BEvdli-5" value="输入信息" style="shape=parallelogram;html=1;strokeWidth=2;perimeter=parallelogramPerimeter;whiteSpace=wrap;rounded=1;arcSize=12;size=0.23;shadow=0;gradientColor=#ffffff;" vertex="1" parent="1">
          <mxGeometry x="70" y="100" width="120" height="40" as="geometry" />
        </mxCell>
        <mxCell id="LHo_MaGVaMYz85BEvdli-9" style="edgeStyle=orthogonalEdgeStyle;rounded=0;orthogonalLoop=1;jettySize=auto;html=1;exitX=1;exitY=0.5;exitDx=0;exitDy=0;exitPerimeter=0;entryX=1;entryY=0.5;entryDx=0;entryDy=0;entryPerimeter=0;" edge="1" parent="1" source="LHo_MaGVaMYz85BEvdli-8" target="LHo_MaGVaMYz85BEvdli-1">
          <mxGeometry relative="1" as="geometry" />
        </mxCell>
        <mxCell id="LHo_MaGVaMYz85BEvdli-10" style="edgeStyle=orthogonalEdgeStyle;rounded=0;orthogonalLoop=1;jettySize=auto;html=1;exitX=0.5;exitY=1;exitDx=0;exitDy=0;exitPerimeter=0;" edge="1" parent="1" source="LHo_MaGVaMYz85BEvdli-8" target="LHo_MaGVaMYz85BEvdli-11">
          <mxGeometry relative="1" as="geometry">
            <mxPoint x="130" y="240" as="targetPoint" />
          </mxGeometry>
        </mxCell>
        <mxCell id="LHo_MaGVaMYz85BEvdli-8" value="信息是否完整" style="strokeWidth=2;html=1;shape=mxgraph.flowchart.decision;whiteSpace=wrap;rounded=0;shadow=0;gradientColor=#ffffff;" vertex="1" parent="1">
          <mxGeometry x="70" y="170" width="120" height="40" as="geometry" />
        </mxCell>
        <mxCell id="LHo_MaGVaMYz85BEvdli-16" style="edgeStyle=orthogonalEdgeStyle;rounded=0;orthogonalLoop=1;jettySize=auto;html=1;exitX=0.5;exitY=1;exitDx=0;exitDy=0;entryX=0.5;entryY=0;entryDx=0;entryDy=0;entryPerimeter=0;" edge="1" parent="1" source="LHo_MaGVaMYz85BEvdli-11" target="LHo_MaGVaMYz85BEvdli-14">
          <mxGeometry relative="1" as="geometry" />
        </mxCell>
        <mxCell id="LHo_MaGVaMYz85BEvdli-22" style="edgeStyle=orthogonalEdgeStyle;rounded=0;orthogonalLoop=1;jettySize=auto;html=1;exitX=1;exitY=0.25;exitDx=0;exitDy=0;dashed=1;" edge="1" parent="1" source="LHo_MaGVaMYz85BEvdli-11">
          <mxGeometry relative="1" as="geometry">
            <mxPoint x="310" y="250" as="targetPoint" />
          </mxGeometry>
        </mxCell>
        <mxCell id="LHo_MaGVaMYz85BEvdli-23" style="edgeStyle=orthogonalEdgeStyle;rounded=0;orthogonalLoop=1;jettySize=auto;html=1;exitX=1;exitY=0.75;exitDx=0;exitDy=0;entryX=1;entryY=0.75;entryDx=0;entryDy=0;dashed=1;" edge="1" parent="1" target="LHo_MaGVaMYz85BEvdli-11">
          <mxGeometry relative="1" as="geometry">
            <mxPoint x="310" y="270" as="sourcePoint" />
          </mxGeometry>
        </mxCell>
        <mxCell id="LHo_MaGVaMYz85BEvdli-11" value="发起注册" style="rounded=0;whiteSpace=wrap;html=1;absoluteArcSize=1;arcSize=14;strokeWidth=2;shadow=0;gradientColor=#ffffff;" vertex="1" parent="1">
          <mxGeometry x="75" y="240" width="110" height="40" as="geometry" />
        </mxCell>
        <mxCell id="LHo_MaGVaMYz85BEvdli-17" style="edgeStyle=orthogonalEdgeStyle;rounded=0;orthogonalLoop=1;jettySize=auto;html=1;exitX=0.5;exitY=1;exitDx=0;exitDy=0;exitPerimeter=0;" edge="1" parent="1" source="LHo_MaGVaMYz85BEvdli-14">
          <mxGeometry relative="1" as="geometry">
            <mxPoint x="130" y="370" as="targetPoint" />
          </mxGeometry>
        </mxCell>
        <mxCell id="LHo_MaGVaMYz85BEvdli-20" style="edgeStyle=orthogonalEdgeStyle;rounded=0;orthogonalLoop=1;jettySize=auto;html=1;exitX=0;exitY=0.5;exitDx=0;exitDy=0;exitPerimeter=0;entryX=0;entryY=0.5;entryDx=0;entryDy=0;entryPerimeter=0;" edge="1" parent="1" source="LHo_MaGVaMYz85BEvdli-14" target="LHo_MaGVaMYz85BEvdli-1">
          <mxGeometry relative="1" as="geometry" />
        </mxCell>
        <mxCell id="LHo_MaGVaMYz85BEvdli-14" value="注册成功" style="strokeWidth=2;html=1;shape=mxgraph.flowchart.decision;whiteSpace=wrap;rounded=0;shadow=0;gradientColor=#ffffff;" vertex="1" parent="1">
          <mxGeometry x="75" y="310" width="110" height="40" as="geometry" />
        </mxCell>
        <mxCell id="LHo_MaGVaMYz85BEvdli-18" value="结束" style="strokeWidth=2;html=1;shape=mxgraph.flowchart.terminator;whiteSpace=wrap;" vertex="1" parent="1">
          <mxGeometry x="70" y="370" width="120" height="40" as="geometry" />
        </mxCell>
        <mxCell id="LHo_MaGVaMYz85BEvdli-25" value="服务器申请注册账号" style="text;html=1;align=center;verticalAlign=middle;resizable=0;points=[];autosize=1;strokeColor=none;" vertex="1" parent="1">
          <mxGeometry x="190" y="220" width="120" height="20" as="geometry" />
        </mxCell>
        <mxCell id="LHo_MaGVaMYz85BEvdli-26" value="返回注册结果" style="text;html=1;align=center;verticalAlign=middle;resizable=0;points=[];autosize=1;strokeColor=none;" vertex="1" parent="1">
          <mxGeometry x="205" y="270" width="90" height="20" as="geometry" />
        </mxCell>
        <mxCell id="LHo_MaGVaMYz85BEvdli-27" value="N" style="text;html=1;align=center;verticalAlign=middle;resizable=0;points=[];autosize=1;strokeColor=none;" vertex="1" parent="1">
          <mxGeometry x="210" y="80" width="20" height="20" as="geometry" />
        </mxCell>
        <mxCell id="LHo_MaGVaMYz85BEvdli-28" value="Y" style="text;html=1;align=center;verticalAlign=middle;resizable=0;points=[];autosize=1;strokeColor=none;" vertex="1" parent="1">
          <mxGeometry x="30" y="180" width="20" height="20" as="geometry" />
        </mxCell>
      </root>
    </mxGraphModel>
  </diagram>
</mxfile>
